<?xml version="1.0" encoding="UTF-8" standalone="no"?>
<!-- Created with Inkscape (http://www.inkscape.org/) -->

<svg
   width="300mm"
   height="300mm"
   viewBox="0 0 300 300"
   version="1.1"
   id="svg1189"
   inkscape:version="1.1.2 (1:1.1+202202050950+0a00cf5339)"
   sodipodi:docname="aging_vector_thumb.svg"
   inkscape:export-filename="/home/richardjacton/Nextcloud/podcast/art_test/53_Ageing_and_immortality_special/aging_vector_480.png"
   inkscape:export-xdpi="40.639999"
   inkscape:export-ydpi="40.639999"
   xmlns:inkscape="http://www.inkscape.org/namespaces/inkscape"
   xmlns:sodipodi="http://sodipodi.sourceforge.net/DTD/sodipodi-0.dtd"
   xmlns="http://www.w3.org/2000/svg"
   xmlns:svg="http://www.w3.org/2000/svg">
  <sodipodi:namedview
     id="namedview1191"
     pagecolor="#ffffff"
     bordercolor="#666666"
     borderopacity="1.0"
     inkscape:pageshadow="2"
     inkscape:pageopacity="1"
     inkscape:pagecheckerboard="0"
     inkscape:document-units="mm"
     showgrid="false"
     lock-margins="true"
     fit-margin-top="5"
     fit-margin-left="5"
     fit-margin-right="5"
     fit-margin-bottom="5"
     inkscape:zoom="0.48300058"
     inkscape:cx="116.97708"
     inkscape:cy="606.62453"
     inkscape:window-width="2044"
     inkscape:window-height="1221"
     inkscape:window-x="261"
     inkscape:window-y="178"
     inkscape:window-maximized="0"
     inkscape:current-layer="layer1" />
  <defs
     id="defs1186" />
  <g
     inkscape:label="Layer 1"
     inkscape:groupmode="layer"
     id="layer1"
     transform="translate(159.30554,-43.577192)">
    <path
       style="fill:#000000;stroke-width:0.208639"
       d="m -146.3773,250.73172 v -1.13473 l -0.99103,-0.11898 c -0.54507,-0.0654 -1.36642,-0.20519 -1.82522,-0.31057 -0.85485,-0.19635 -0.81589,-0.20885 -3.2836,1.05324 -0.72134,0.36894 -1.82841,0.14784 -1.82841,-0.36516 0,-0.16346 0.1643,-0.35869 0.36512,-0.43384 0.53304,-0.19951 3.18173,-2.60526 3.18173,-2.8899 0,-0.32275 0.81096,-1.34176 1.06782,-1.34176 0.11164,0 0.44913,0.24614 0.74997,0.54699 0.53211,0.53211 0.57802,0.54004 1.68786,0.29168 0.68897,-0.15419 1.64975,-0.20082 2.4256,-0.11774 1.42837,0.15296 1.68305,0.004 2.19373,-1.28777 0.146,-0.36913 0.40237,-0.78479 0.56972,-0.92368 0.63599,-0.52782 0.88431,-1.31845 0.68346,-2.17601 -0.4611,-1.96862 0.58753,-4.01563 2.57231,-5.02139 0.88097,-0.44643 1.39488,-0.54614 3.0563,-0.593 1.09849,-0.031 3.72283,-0.2557 5.83186,-0.49935 4.23561,-0.48934 6.17791,-0.55248 7.02995,-0.22854 0.31026,0.11797 0.60288,0.17571 0.65027,0.12832 0.0474,-0.0474 0.089,-0.67906 0.0924,-1.40375 0.0101,-2.11121 1.08699,-3.89652 3.01615,-5.00027 1.04675,-0.5989 1.29423,-0.65754 2.34907,-0.55659 2.32688,0.22266 4.59343,1.7453 5.3721,3.6089 0.68484,1.63908 0.21768,3.90259 -1.04959,5.08554 -0.48513,0.45286 -0.53261,0.61665 -0.41197,1.42115 0.12147,0.80997 0.088,0.92195 -0.30653,1.02512 -0.24359,0.0637 -0.44289,0.26973 -0.44289,0.45783 0,0.18811 -0.30472,0.4769 -0.67716,0.64175 -0.37244,0.16486 -0.82106,0.47745 -0.99693,0.69465 -0.31312,0.38667 -0.3473,0.38563 -1.63918,-0.0496 -1.28378,-0.43248 -1.33887,-0.43436 -2.04107,-0.07 -0.39691,0.20598 -0.71593,0.44493 -0.70892,0.53099 0.007,0.086 0.0128,0.41797 0.0128,0.73756 0,0.48322 0.25685,0.76479 1.52499,1.67171 0.83874,0.59985 1.89055,1.46502 2.33735,1.92258 0.4893,0.50109 1.00628,0.83195 1.29995,0.83195 1.11087,0 3.39187,1.68621 3.39187,2.5074 0,0.60795 -0.40348,0.70787 -0.9156,0.22676 -0.25709,-0.24152 -0.60222,-0.4377 -0.76695,-0.43594 -0.25509,0.003 -0.25399,0.032 0.008,0.19729 0.57633,0.36449 0.0302,0.47282 -1.07805,0.21383 -1.17981,-0.27575 -3.12801,-1.1145 -3.55859,-1.53208 -0.14318,-0.13887 -0.68282,-0.49809 -1.1992,-0.79829 -2.29944,-1.33678 -3.75549,-2.85485 -3.75549,-3.91545 0,-0.23521 -0.0985,-0.42764 -0.219,-0.42764 -0.18582,0 -1.41533,0.55881 -1.62163,0.73703 -0.0369,0.0319 0.41312,0.65374 1.00019,1.38178 0.58709,0.72805 1.27453,1.76583 1.52768,2.3062 0.41524,0.88634 0.53027,0.98332 1.17569,0.99103 0.83914,0.0101 1.91723,0.31816 2.92684,0.83653 0.82695,0.4246 1.15632,0.96854 0.45087,0.74464 -0.50692,-0.16089 -0.54405,-0.0613 -0.18905,0.50711 0.35098,0.56201 0.0683,0.75434 -0.53124,0.36149 -0.36152,-0.23687 -0.56311,-0.26449 -0.7279,-0.0997 -0.16479,0.1648 -0.31208,0.15806 -0.53182,-0.0243 -0.16716,-0.13872 -0.52321,-0.2328 -0.79124,-0.20908 -1.76468,0.15626 -2.44482,-0.0147 -3.24299,-0.81523 -1.45964,-1.46392 -3.41324,-3.77876 -3.87773,-4.59475 l -0.46031,-0.80867 -1.56479,0.3774 c -0.86063,0.20756 -2.06814,0.38134 -2.68336,0.38615 l -1.11856,0.009 0.14646,0.78239 c 0.0805,0.43032 0.39247,1.29878 0.69313,1.9299 0.77764,1.63232 0.73372,2.51274 -0.17199,3.4484 l -0.72549,0.74948 -2.08638,-0.14283 c -1.15155,-0.0788 -3.09831,-0.4061 -4.3448,-0.73043 l -2.25842,-0.5876 -1.57528,0.71788 c -0.92947,0.42357 -1.90675,0.71788 -2.38379,0.71788 h -0.8085 z m 8.70702,-3.51836 c -0.12926,-0.3878 -0.49036,-0.38139 -0.98291,0.0174 l -0.47595,0.38541 0.76674,-0.0895 c 0.4217,-0.0492 0.73316,-0.19024 0.69212,-0.31334 z m 48.831337,4.28491 c -0.145814,-0.1757 -0.323315,-1.03319 -0.394445,-1.90555 -0.110133,-1.35062 -0.300764,-1.94228 -1.284135,-3.98542 -1.726781,-3.58774 -1.868638,-4.10581 -2.02806,-7.40667 -0.136664,-2.82962 -0.279563,-3.65117 -0.635075,-3.65117 -0.09357,0 -0.275114,0.31808 -0.403416,0.70686 -0.128308,0.38878 -0.550076,1.1164 -0.937253,1.61695 -0.387182,0.50054 -0.858582,1.42646 -1.047551,2.0576 -0.689679,2.30341 -1.326452,4.10719 -2.062297,5.84187 -0.413749,0.97539 -0.752264,2.10204 -0.752245,2.50366 2.9e-5,0.68463 0.08776,0.77919 1.404796,1.51405 0.772625,0.43111 1.5456,0.86494 1.717726,0.96406 0.172125,0.0991 0.758923,0.37893 1.303989,0.62178 1.030282,0.45903 1.283757,0.94767 0.586218,1.13008 -0.522641,0.13667 -3.086168,-0.15705 -3.786736,-0.43388 -0.317224,-0.12535 -1.403886,-0.16595 -2.631387,-0.0983 -1.940386,0.10692 -2.123136,0.0831 -2.537026,-0.33081 -0.57544,-0.57543 -0.56188,-0.96672 0.0841,-2.42736 0.43221,-0.97731 0.56876,-1.74313 0.73936,-4.14656 0.32816,-4.62303 0.52367,-5.33109 2.415312,-8.74698 0.540761,-0.97651 0.55463,-1.09358 0.580168,-4.89696 l 0.02614,-3.89654 -0.654514,-0.9726 c -0.359977,-0.53494 -0.714702,-1.34904 -0.788275,-1.80913 -0.239971,-1.50065 0.304994,-3.42213 1.384783,-4.88266 0.368363,-0.49823 0.401175,-0.79125 0.303698,-2.71229 -0.0601,-1.18455 -0.222934,-2.65416 -0.361858,-3.26582 l -0.252588,-1.1121 -0.497127,0.46702 c -0.273423,0.25688 -0.557983,0.66344 -0.632359,0.90347 -0.07438,0.24004 -0.7793,1.40254 -1.56649,2.58332 -0.7872,1.18079 -1.47081,2.35437 -1.51915,2.60798 -0.0483,0.2536 -0.18017,1.13525 -0.29297,1.95923 -0.19757,1.44341 -0.96706,3.40487 -1.33572,3.40487 -0.0981,0 -0.24964,-0.19262 -0.33673,-0.42804 -0.14574,-0.394 -0.2135,-0.3594 -0.85187,0.43496 -0.47697,0.59354 -0.76081,0.79573 -0.90899,0.64755 -0.14817,-0.14818 0.0245,-0.61827 0.55304,-1.50553 0.42268,-0.70954 0.71823,-1.34034 0.65678,-1.40179 -0.0615,-0.0615 -0.14152,-0.0726 -0.17795,-0.0247 -2.21007,2.90072 -2.4927,3.12574 -2.73142,2.1746 -0.0908,-0.36169 0.0697,-0.91703 0.52634,-1.82168 0.38902,-0.77062 0.52062,-1.18825 0.32271,-1.02399 -0.18383,0.15256 -0.44972,0.59677 -0.59087,0.98713 -0.34311,0.94885 -0.67101,0.90327 -0.53978,-0.075 0.12232,-0.912 1.01554,-2.3064 2.23446,-3.48822 0.72119,-0.69925 0.95787,-1.15882 1.49773,-2.90828 0.74292,-2.40745 2.70515,-6.35603 4.05377,-8.15733 0.51396,-0.68648 1.015236,-1.53962 1.113943,-1.89586 0.09871,-0.35625 0.568351,-1.29251 1.043654,-2.08057 1.126104,-1.86711 1.407523,-2.87659 0.982674,-3.52498 -0.368021,-0.56167 -2.217911,-1.27558 -2.427321,-0.93676 -0.0752,0.12173 -0.39313,-0.1546 -0.71923,-0.62516 -0.61805,-0.89184 -0.73972,-0.96507 -1.06426,-0.64053 -0.13127,0.13127 -0.41273,-0.43888 -0.7982,-1.61695 -0.3275,-1.00084 -0.67752,-1.98274 -0.77783,-2.182 -0.57842,-1.14893 0.17181,-2.79045 2.02255,-4.4254 1.804811,-1.59438 2.889728,-1.9958 5.360439,-1.98334 2.533236,0.0128 4.005938,0.5684 4.677716,1.76481 0.322972,0.57521 0.399183,0.91475 0.2626,1.16996 -0.172332,0.322 -0.144488,0.81064 0.124074,2.17717 0.04619,0.23503 0.462493,0.64005 0.925122,0.90007 0.935484,0.52577 0.930025,0.51607 0.618041,1.09902 -0.144991,0.27092 -0.152348,0.50356 -0.021,0.66436 0.111157,0.13611 0.166348,0.52912 0.122642,0.87337 -0.0437,0.34426 0.02519,0.83083 0.153047,1.08128 0.340555,0.66695 0.109429,1.03168 -1.06368,1.67862 -1.122182,0.61884 -1.543631,1.25519 -1.775063,2.6802 -0.137729,0.84809 -0.136121,0.85063 0.698166,1.10059 1.30121,0.38985 1.788809,1.24053 1.828505,3.19006 0.01786,0.87661 0.125941,1.76855 0.240209,1.98206 0.114262,0.21352 0.271276,0.81189 0.348917,1.3297 l 0.141171,0.94147 1.913646,0.4095 c 1.198471,0.25645 3.12224,0.45042 5.147544,0.51899 2.932684,0.0993 3.316489,0.1568 4.120608,0.61735 0.641739,0.36756 0.886716,0.64135 0.886716,0.99104 0,0.56578 -0.157618,0.59373 -0.967184,0.17151 -0.678945,-0.3541 -2.072996,-0.41904 -2.266708,-0.10561 -0.07092,0.11475 -0.05092,0.20864 0.04448,0.20864 0.09537,0 0.529955,0.29389 0.965729,0.65309 0.537745,0.44326 0.724052,0.72137 0.579847,0.86557 -0.144205,0.14421 -0.38115,0.10195 -0.737442,-0.13149 -0.646666,-0.42371 -0.748289,-0.42793 -0.748289,-0.031 0,0.17212 -0.02969,0.31295 -0.06599,0.31295 -0.636955,0 -2.729314,-0.55868 -3.311888,-0.8843 -0.677373,-0.37861 -1.003349,-0.41604 -2.712302,-0.31147 -1.068315,0.0653 -2.09428,0.17866 -2.279926,0.25178 -0.274322,0.10801 -0.365725,0.62785 -0.488107,2.77601 -0.09212,1.61703 -0.341194,3.39452 -0.641586,4.57872 l -0.491011,1.93562 0.405557,0.91683 c 0.223059,0.50426 0.697458,2.12363 1.054229,3.59861 0.575152,2.37785 0.66801,3.20194 0.819365,7.27181 0.106875,2.87385 0.288795,5.0494 0.486547,5.81862 0.173716,0.67571 0.417899,2.27181 0.542629,3.54685 0.277824,2.84011 0.675391,4.15809 1.346545,4.46388 1.050863,0.47881 4.442349,1.55106 5.318591,1.68152 1.329911,0.19801 1.296432,0.57371 -0.108441,1.21688 -1.138766,0.52134 -1.406406,0.55462 -4.811785,0.59843 -3.022581,0.0389 -3.648843,-0.006 -3.871068,-0.27305 z m 15.999969,-0.14652 c -1.600893,-0.73269 -1.662122,-0.86663 -1.66428,-3.64043 -0.0012,-1.4179 -0.127539,-2.91682 -0.305875,-3.6262 -0.408881,-1.62646 -0.206481,-1.92369 1.810023,-2.6581 0.928754,-0.33824 1.807668,-1.24616 4.239778,-4.37968 2.60726,-3.3592 3.51459,-4.24533 6.150341,-6.00667 1.798135,-1.20159 2.163281,-1.54592 2.642981,-2.49226 0.306128,-0.60392 0.712206,-1.82446 0.902396,-2.7123 0.190189,-0.88783 0.715353,-2.78785 1.16703,-4.22224 0.923007,-2.93118 0.945136,-3.1102 0.492618,-3.98526 -0.418974,-0.81021 -0.425147,-2.78677 -0.01313,-4.20405 0.177413,-0.61029 0.680027,-1.62272 1.116922,-2.24985 1.049752,-1.50687 3.1029,-4.96765 3.380885,-5.69879 0.368276,-0.96865 0.249515,-2.62738 -0.322655,-4.50648 -0.845594,-2.77706 -0.765668,-2.7166 -2.028174,-1.53405 -0.593849,0.55625 -2.06554,1.85141 -3.270427,2.87813 -1.204888,1.02674 -2.31379,2.03443 -2.464228,2.23933 -0.15044,0.20488 -1.118268,1.33428 -2.150735,2.50978 -3.022093,3.44075 -4.034019,5.00519 -4.3514,6.72731 -0.148037,0.80326 -0.362939,1.64824 -0.477556,1.87775 -0.440204,0.88142 -1.483455,2.39933 -1.649052,2.39933 -0.290154,0 -0.193688,-1.14538 0.132821,-1.57707 0.314828,-0.41624 0.428716,-1.13522 0.179817,-1.13522 -0.07688,0 -0.778964,0.61708 -1.560195,1.3713 -1.274626,1.23054 -1.84688,1.50915 -1.84688,0.89917 0,-0.11471 0.29734,-0.57856 0.660765,-1.0308 0.363425,-0.45223 0.59435,-0.88866 0.513172,-0.96984 -0.08118,-0.0812 -0.552584,0.0737 -1.047563,0.34403 -0.494986,0.2704 -1.007572,0.42513 -1.139091,0.34385 -0.335421,-0.20731 -0.298736,-0.74908 0.05074,-0.74908 0.282525,0 1.405807,-0.81382 1.142314,-0.82761 -0.07295,-0.004 -0.394818,0.12909 -0.715271,0.29534 -0.738944,0.38337 -0.925524,0.26175 -0.925524,-0.60327 0,-0.84822 1.040496,-1.87133 2.862606,-2.8148 0.663215,-0.34341 1.404583,-0.79212 1.647489,-0.99715 0.242904,-0.20503 1.215823,-1.73416 2.162039,-3.39804 0.946219,-1.66389 1.902402,-3.25998 2.124853,-3.54685 0.222451,-0.28688 0.720278,-0.94409 1.106284,-1.46047 0.386008,-0.51639 2.132842,-2.2533 3.881856,-3.85982 1.749013,-1.60651 3.964427,-3.64721 4.923143,-4.53487 0.958714,-0.88766 2.107494,-1.79983 2.552841,-2.02703 1.251734,-0.63858 2.315027,-2.00212 2.315027,-2.9687 0,-0.43835 -0.09388,-0.797 -0.208639,-0.797 -0.114751,0 -0.212573,0.11736 -0.217385,0.26079 -0.0048,0.14345 -0.175729,-0.0525 -0.379823,-0.43534 l -0.371078,-0.69616 -0.339467,0.48751 c -0.29547,0.42434 -0.340884,0.43761 -0.350411,0.10244 -0.02521,-0.88712 -1.252511,-2.18108 -1.267355,-1.33619 -0.0025,0.14344 -0.180518,-0.12663 -0.395553,-0.60018 -0.440554,-0.97017 -0.821323,-1.29918 -1.058826,-0.9149 -0.173071,0.28004 -0.707873,-1.1606 -0.95898,-2.58327 -0.142436,-0.80699 -0.145235,-0.80903 -0.429155,-0.31296 -0.508467,0.88839 -0.09814,-2.06073 0.46131,-3.31557 0.474563,-1.06442 0.396425,-1.1681 -0.378673,-0.50246 -0.536371,0.46063 -0.444923,0.11704 0.190622,-0.7162 0.573816,-0.75231 1.466501,-1.32993 2.055349,-1.32993 0.185234,0 0.584534,-0.29443 0.887333,-0.65429 0.302799,-0.35985 0.857045,-0.78234 1.231659,-0.93887 0.827394,-0.3457 1.364817,-0.38167 0.903156,-0.0604 -0.225774,0.1571 -0.05141,0.17653 0.625916,0.0697 2.063861,-0.32537 4.536522,0.007 5.782995,0.77738 0.803967,0.49688 0.857716,0.60399 0.219321,0.43704 -0.449006,-0.11742 -0.453716,-0.10377 -0.133139,0.38549 0.317531,0.48461 0.483213,1.16794 0.729627,3.0092 0.08969,0.67018 0.272699,0.95021 0.929208,1.42183 0.877594,0.63045 0.939147,0.77768 0.594407,1.42185 -0.139833,0.26128 -0.150449,0.50927 -0.02844,0.66435 0.107074,0.13611 0.193614,0.3883 0.192317,0.56043 -0.0013,0.17213 0.06493,0.78898 0.147176,1.3708 0.168932,1.19504 0.0613,1.3521 -1.419833,2.07175 -1.119721,0.54405 -1.381599,1.13134 -1.2327,2.76447 0.09205,1.00952 0.194793,1.30444 0.455029,1.30602 0.184877,9.7e-4 0.823453,0.22893 1.419057,0.50623 1.290051,0.60065 2.104537,1.63197 2.869189,3.63304 0.294879,0.77169 0.746823,1.69248 1.004318,2.04618 1.031787,1.41732 2.923212,3.82716 3.003845,3.82716 0.261754,0 3.046996,-1.98827 3.308758,-2.36198 0.182581,-0.26068 0.310404,-0.91132 0.310404,-1.58002 0,-1.07906 0.0489,-1.18371 0.961974,-2.05859 0.692627,-0.66365 1.025473,-0.85823 1.188758,-0.69495 0.163285,0.16329 0.385005,0.0752 0.79187,-0.3146 0.402797,-0.38591 0.690552,-0.50157 1.001947,-0.40274 0.559956,0.17772 0.560814,0.65542 0.0016,0.95465 -0.239329,0.12809 -0.386231,0.2818 -0.326448,0.34158 0.05978,0.0597 0.323431,-0.0417 0.585887,-0.22555 0.847044,-0.59329 1.346181,-0.41208 1.234474,0.44816 -0.01863,0.14344 0.06414,0.2608 0.183917,0.2608 0.283743,0 0.282939,0.76966 -0.0011,0.94513 -0.147575,0.0913 -0.132738,0.23887 0.04559,0.45374 0.223827,0.2697 0.08943,0.47473 -0.876582,1.33723 -0.627518,0.56028 -1.633684,1.35236 -2.235927,1.76018 -0.629868,0.42653 -1.437974,1.24657 -1.902447,1.93053 -1.337833,1.9702 -3.325809,3.58783 -4.40913,3.58783 -0.801542,0 -1.592166,-0.58775 -3.494472,-2.5978 -1.037001,-1.09573 -1.928899,-1.99224 -1.981996,-1.99224 -0.0531,0 -0.149026,0.68068 -0.213175,1.51262 -0.190358,2.46872 -0.720701,4.08739 -2.554161,7.79557 -0.955387,1.93228 -1.697277,3.57762 -1.648639,3.65632 0.04863,0.0787 0.778076,0.52158 1.620972,0.98419 2.848415,1.56331 5.23616,3.33059 7.562262,5.5972 1.273825,1.24124 2.423943,2.46188 2.55582,2.71253 0.131874,0.25065 0.239773,0.96419 0.239773,1.58564 0,1.17361 -0.51556,2.15873 -1.661411,3.1746 -0.258866,0.22951 -0.951019,1.02754 -1.538117,1.77343 -0.587098,0.74588 -2.008597,2.42639 -3.158887,3.73447 -3.626922,4.12442 -4.69942,5.59094 -4.69942,6.42595 0,0.28393 0.265586,0.90714 0.590192,1.38491 0.324605,0.47775 0.908595,1.3567 1.297759,1.9532 0.681051,1.04391 1.073443,1.29748 2.858573,1.84729 0.36997,0.11395 0.323613,0.65059 -0.06922,0.80133 -0.460182,0.17659 -2.522231,0.14198 -3.564251,-0.0598 -0.568637,-0.11013 -1.25375,-0.49505 -1.982064,-1.1136 -0.612176,-0.51992 -1.7826,-1.28064 -2.600939,-1.69052 -1.831098,-0.91713 -2.163281,-1.2377 -2.163281,-2.08769 0,-0.52101 0.285532,-0.9918 1.30399,-2.15002 1.007027,-1.14523 1.702266,-2.28469 3.052851,-5.00342 2.140818,-4.30949 2.613217,-5.02549 4.478283,-6.78765 1.775398,-1.67745 1.757059,-1.72826 -0.964432,-2.67178 -1.058474,-0.36697 -2.628653,-0.98158 -3.489286,-1.3658 -2.59944,-1.16049 -2.526438,-1.1685 -3.242149,0.35593 -0.785157,1.67235 -3.046063,5.53804 -3.630782,6.20789 -0.245279,0.281 -0.81149,1.17293 -1.258248,1.98207 -0.999655,1.81053 -1.601157,2.3899 -3.365702,3.24191 -0.757855,0.36592 -1.853566,1.10722 -2.434912,1.6473 -0.581346,0.5401 -2.167632,1.82083 -3.525083,2.84604 -5.569551,4.20647 -5.535636,4.16299 -7.806351,10.00529 l -0.403737,1.03877 0.943462,0.854 c 0.518909,0.46969 0.87981,0.91763 0.802005,0.99544 -0.276211,0.27622 -1.442922,0.10048 -2.477965,-0.37323 z m 67.0839483,-0.0417 c -1.7481712,-0.45708 -2.0763425,-0.48717 -2.7809916,-0.25507 -0.6270416,0.20655 -0.9980067,0.20992 -1.7242607,0.0157 -0.508934,-0.13611 -1.239519,-0.24748 -1.62352,-0.24748 -0.384003,0 -1.673605,-0.31973 -2.865783,-0.71051 -1.616729,-0.52995 -2.72434,-0.74818 -4.358302,-0.85875 -2.39342,-0.16196 -3.266378,-0.47122 -3.455348,-1.22414 -0.07392,-0.2945 0.133103,-1.23171 0.51763,-2.34338 0.873151,-2.52432 1.056315,-4.17439 1.270988,-11.44998 0.101575,-3.44253 0.295197,-6.72859 0.430274,-7.30234 0.135077,-0.57376 0.646105,-1.93648 1.135621,-3.02826 0.489515,-1.09179 1.041066,-2.49367 1.225665,-3.11528 0.438992,-1.47825 0.422506,-5.04802 -0.04486,-9.71297 -0.284158,-2.83628 -0.417481,-3.54757 -0.665498,-3.55042 -0.31749,-0.004 -0.324383,-0.14534 -0.07936,-1.63106 l 0.131945,-0.80006 -0.992313,1.06085 c -0.545772,0.58348 -1.073351,1.06087 -1.172401,1.06087 -0.321659,0 -0.190297,-0.69222 0.215215,-1.13406 0.495487,-0.53989 1.273805,-1.9975 1.273805,-2.38555 0,-0.16056 -0.508271,0.23708 -1.129489,0.88362 -0.621222,0.64653 -1.225947,1.17552 -1.343838,1.17552 -0.557265,0 -0.420561,-0.53489 0.338234,-1.32345 0.852997,-0.88644 1.412052,-1.76416 1.235884,-1.94032 -0.05415,-0.0541 -0.302872,0.1886 -0.552706,0.53946 -0.459027,0.64465 -1.051975,0.85731 -1.051473,0.37713 1.5e-4,-0.14344 0.38642,-0.81709 0.858376,-1.49701 l 0.858104,-1.2362 -0.474733,-0.9545 c -1.02053,-2.05186 -0.705448,-5.86046 0.755896,-9.13701 l 0.537975,-1.20621 -0.249522,-3.44254 c -0.190501,-2.62831 -0.193121,-4.40484 -0.01108,-7.51102 0.326423,-5.56961 0.544544,-6.9922 1.501114,-9.79037 1.137472,-3.32735 2.413224,-5.11904 5.043466,-7.08314 1.431063,-1.06863 2.36367,-2.0887 2.51973,-2.75603 0.06934,-0.29653 0.415549,-0.90339 0.7693458,-1.34858 0.3537944,-0.4452 1.0125928,-1.517 1.4639922,-2.3818 0.9120751,-1.74736 2.8180828,-4.01447 3.8034445,-4.52402 0.6453176,-0.33371 1.5556664,-0.38903 3.72444195,-0.22635 1.53053128,0.1148 2.89130255,0.94235 4.18859705,2.54726 2.0026641,2.47754 2.4263841,4.11103 2.0703105,7.98135 -0.247921,2.69475 -0.3400521,3.06773 -0.638522,2.5848 -0.1108902,-0.17943 -0.2204861,0.0579 -0.3136631,0.67925 -0.1632962,1.0889 -0.5363909,1.50248 -0.5363909,0.59459 0,-1.10692 -0.3101208,-0.93649 -0.5425118,0.29814 -0.2237673,1.18885 -0.2356015,1.20479 -0.4694297,0.63226 -0.131933,-0.32304 -0.2398782,-1.00372 -0.2398782,-1.51263 0,-0.97436 -0.082663,-1.04218 -0.8941619,-0.73365 -0.3418797,0.12998 -0.6550345,0.56365 -0.97335818,1.34795 -0.58312437,1.43672 -0.87180632,1.70694 -1.44267645,1.35042 -0.34953865,-0.21829 -0.4866171,-0.20711 -0.79874277,0.0651 -0.2072322,0.18075 -0.4855406,0.28898 -0.6184673,0.24053 -0.1329208,-0.0484 -0.2973167,0.002 -0.3653236,0.11195 -0.068007,0.11003 -0.2944127,0.15541 -0.5031293,0.10083 -0.2087167,-0.0546 -0.501781,0.0481 -0.6512554,0.22822 -0.1494745,0.18011 -0.5413485,0.32746 -0.8708305,0.32746 -0.4646128,0 -0.7436665,-0.199 -1.2433888,-0.88671 -0.3543788,-0.48769 -0.71675,-1.01474 -0.8052672,-1.17122 -0.126443,-0.22353 -0.2569377,-0.23314 -0.6088106,-0.0448 -0.3472453,0.18584 -0.4478717,0.43357 -0.4478717,1.10263 0,0.49462 0.1410604,1.01882 0.330485,1.22813 0.4546712,0.50241 1.3301454,5.69799 1.3348459,7.92176 0.00479,2.26378 -0.4966722,4.1969 -1.8638503,7.18517 -1.2399941,2.71029 -1.3123999,3.55075 -0.6146881,7.13529 0.3498218,1.79724 0.4124108,2.67585 0.3091519,4.33985 l -0.1294709,2.08638 1.1701443,2.81662 c 2.5972871,6.25185 3.7521379,9.81788 4.45943,13.77014 0.4470158,2.49788 0.9921949,4.66018 1.57674457,6.25368 0.5279392,1.43921 0.26444569,2.96747 -0.89221607,5.17498 -0.7251647,1.384 -1.1164159,2.51947 -1.6335441,4.74081 -0.3739997,1.60652 -1.3037422,5.362 -2.0660939,8.34553 -1.7186506,6.72607 -1.7429862,7.44246 -0.2957512,8.70624 2.2400134,1.95607 4.78102022,3.34254 7.311281,3.98935 1.2567057,0.32124 1.5273376,0.76387 0.7701418,1.25955 -0.5824145,0.38126 -1.51791032,0.52462 -4.1333706,0.63339 -1.6238625,0.0676 -2.3402725,-0.0112 -3.9641322,-0.43582 z m -6.3906023,-5.02476 c 0.690111,-2.93824 1.010857,-6.10717 1.28288,-12.67478 0.159331,-3.84677 0.510206,-5.64503 1.5724548,-8.05891 0.4518862,-1.02688 0.9205277,-2.50459 1.0414273,-3.28382 0.195544,-1.26031 0.170691,-1.55321 -0.2250521,-2.65232 -0.9179798,-2.54955 -1.737101,-4.26897 -1.906552,-4.00204 -0.09177,0.14455 -0.168288,1.18105 -0.170045,2.30333 -0.0034,2.18437 -0.422607,3.59795 -1.590112,5.36217 -0.767729,1.16011 -1.270883,2.6333 -1.648911,4.82785 -0.185398,1.07629 -0.809805,3.83463 -1.387571,6.12964 -0.932342,3.70349 -1.061775,4.48954 -1.15089,6.9894 l -0.10041,2.81662 1.826412,1.82557 c 1.004525,1.00408 1.893728,1.82559 1.976002,1.82559 0.08228,0 0.29844,-0.63373 0.480367,-1.4083 z m 28.193311,4.99082 c -0.57375,-0.33011 -1.474701,-0.84867 -2.002102,-1.15237 -0.539484,-0.31064 -1.955428,-0.77258 -3.237162,-1.05608 -2.821534,-0.62407 -3.3238111,-0.84866 -3.6479364,-1.63116 -0.3109969,-0.75081 -0.1032912,-1.43676 0.978172,-3.23046 1.1210762,-1.85941 3.5866834,-10.07919 4.3689724,-14.56519 0.408113,-2.34029 1.20779,-4.70384 2.045253,-6.04499 0.358274,-0.57376 1.507194,-1.94228 2.553155,-3.04114 1.345955,-1.41405 2.124685,-2.44358 2.664565,-3.52273 0.710409,-1.42002 0.762861,-1.65543 0.763524,-3.42665 5.91e-4,-2.32318 0.325208,-6.06576 0.740836,-8.54859 0.291338,-1.74038 0.579866,-2.63604 1.600981,-4.96987 l 0.427039,-0.97598 -0.674019,-2.04924 c -0.975559,-2.96598 -1.070014,-5.05371 -0.327746,-7.24423 0.30717,-0.90648 0.69369,-1.85449 0.858932,-2.10668 0.165241,-0.25219 0.443254,-1.00684 0.61781,-1.67701 0.174557,-0.67016 0.502148,-1.6362 0.727986,-2.14674 0.255817,-0.57833 0.497434,-1.84277 0.640918,-3.35415 l 0.230315,-2.42587 -0.781273,-2.65729 c -0.429699,-1.4615 -0.838864,-2.64752 -0.909254,-2.6356 -0.07039,0.012 -0.754694,0.70343 -1.520685,1.53669 -1.006276,1.09465 -1.456953,1.76883 -1.624282,2.42982 -0.581628,2.29761 -0.857434,2.79142 -3.435465,6.15098 -0.680068,0.88624 -1.886794,2.68466 -2.681604,3.99651 -1.202833,1.98525 -1.544885,2.7654 -2.040154,4.65315 -0.677709,2.58311 -0.913506,3.10552 -1.975442,4.37658 -0.7070314,0.84626 -3.0971505,2.70579 -3.4778441,2.70579 -0.3491958,0 -0.1479725,-0.7282 0.3427664,-1.24041 l 0.5106523,-0.53301 H 6.658453 c -1.0493969,0 -1.82039,-0.33504 -1.5025045,-0.65292 0.076048,-0.0761 0.6277059,-0.21565 1.2258986,-0.31021 0.6412732,-0.10138 1.2637968,-0.34949 1.5169175,-0.6046 l 0.4293025,-0.43267 -0.7756949,0.32212 c -1.263821,0.52483 -2.6668429,0.31208 -2.6668429,-0.4044 0,-0.2113 0.2417536,-0.28492 0.8552351,-0.26046 0.7424339,0.0296 0.9329407,-0.0611 1.4444156,-0.68779 0.6797735,-0.83289 0.6617471,-1.00173 -0.056656,-0.53099 -0.7180671,0.4705 -1.7898665,0.23041 -1.957764,-0.43856 -0.1513674,-0.60309 0.042881,-0.86656 0.3859224,-0.5235 0.1357896,0.13578 0.3789024,0.24688 0.5402584,0.24688 0.5527139,0 1.8441061,-1.22805 2.2364752,-2.12677 0.2157426,-0.49416 0.6945944,-1.24283 1.0641115,-1.66369 1.1326195,-1.29 1.3068095,-1.68137 1.7528965,-3.9385 0.728134,-3.68422 1.399622,-5.56568 3.53364,-9.90102 1.401952,-2.84811 2.263337,-4.90133 2.713434,-6.46779 0.895279,-3.11582 1.193347,-3.72477 2.708389,-5.53315 1.465967,-1.74982 2.085694,-2.86135 2.609961,-4.68122 0.693375,-2.40689 1.57863,-3.65092 5.709617,-8.0237 1.137258,-1.20382 1.441098,-2.2195 0.879111,-2.93872 -0.224165,-0.28688 -0.763701,-1.02635 -1.198978,-1.64327 l -0.791409,-1.12167 0.0017,-2.34006 c 0.0017,-2.23845 0.02915,-2.38434 0.632407,-3.36012 0.649724,-1.05091 1.661903,-1.88057 2.573369,-2.10933 0.28601,-0.0718 0.835299,-0.34447 1.220635,-0.60597 0.932066,-0.63252 2.634102,-0.82157 4.892797,-0.54347 4.818692,0.5933 6.499401,2.10375 5.087857,4.57243 -0.437471,0.76508 -0.475422,0.98394 -0.288256,1.66185 0.118572,0.42939 0.158647,1.19611 0.08905,1.70379 -0.107472,0.78418 -0.03437,1.07282 0.485961,1.91845 0.801439,1.30252 0.858067,1.70861 0.274234,1.96711 -0.319821,0.1416 -0.469437,0.38763 -0.469437,0.77197 0,0.31027 -0.08977,0.61962 -0.19952,0.68744 -0.109744,0.0678 -0.152414,0.2461 -0.09483,0.39616 0.0576,0.15008 -0.0404,0.39328 -0.217753,0.54047 -0.177348,0.14719 -0.322452,0.58256 -0.322452,0.96749 0,1.01567 -0.710664,1.43194 -2.154841,1.26221 -1.280558,-0.15051 -1.850121,0.13879 -2.328174,1.1825 -0.167283,0.36527 -0.496973,0.90104 -0.732653,1.19061 -0.235656,0.28957 -0.483648,0.86659 -0.551099,1.28226 -0.111476,0.68692 -0.02064,0.87651 0.997293,2.08149 2.16777,2.56613 3.027381,4.37001 3.55858,7.4678 0.196201,1.14409 0.196201,1.70805 5.9e-5,2.56521 -0.363095,1.58672 -0.443687,4.93 -0.137535,5.70475 0.139498,0.35304 0.794704,1.15109 1.456008,1.77342 1.111205,1.04577 1.793178,1.98363 4.31222,5.93022 0.512705,0.80326 1.624875,2.29057 2.471469,3.30513 1.328379,1.59192 1.758196,1.95472 3.137107,2.64803 1.499398,0.75389 2.698276,1.80063 2.698695,2.35626 1.01e-4,0.13463 0.389756,0.62034 0.865892,1.07934 1.253122,1.20801 2.891747,3.21286 3.122896,3.82084 0.132258,0.34787 0.125622,0.59786 -0.01963,0.74321 -0.15291,0.15291 -0.688591,-0.24745 -1.775075,-1.32668 -0.855832,-0.85013 -1.610166,-1.49159 -1.67628,-1.42547 -0.06612,0.0661 0.18212,0.56821 0.55166,1.11576 0.654538,0.96983 1.627838,3.09141 1.637791,3.56997 0.006,0.29698 -0.483541,0.50015 -0.761595,0.31598 -0.113913,-0.0755 -0.511185,-0.71211 -0.882813,-1.41479 -0.668957,-1.26483 -2.106162,-2.90538 -2.106162,-2.40413 0,0.14295 0.148214,0.54655 0.329377,0.89686 0.427457,0.82663 0.917321,2.44796 0.920202,3.04568 0.0023,0.31991 -0.121743,0.46944 -0.387071,0.46944 -0.287812,0 -0.513183,-0.34002 -0.864342,-1.30399 -0.466225,-1.27989 -1.338983,-2.66015 -1.682046,-2.66015 -0.09563,0 0.07152,0.47303 0.37148,1.05117 0.421449,0.81232 0.488988,1.10754 0.297228,1.2993 -0.176384,0.17637 -0.347675,0.18534 -0.592303,0.031 -0.451014,-0.2845 -1.641883,-2.25751 -2.970074,-4.92079 -1.23222,-2.47086 -1.449554,-2.73378 -3.559347,-4.30616 -0.860634,-0.64142 -2.299491,-1.76628 -3.197467,-2.49971 -0.897982,-0.73343 -1.656089,-1.30147 -1.684696,-1.26231 -0.02857,0.0392 -0.157352,0.63452 -0.286144,1.32303 -0.128793,0.68851 -0.37989,1.92604 -0.557966,2.75005 l -0.323806,1.49821 1.789991,2.92978 c 2.148413,3.51644 2.958286,5.64875 3.823362,10.06662 1.497129,7.64574 2.021998,12.21065 1.928986,16.77686 -0.06357,3.12099 -0.01963,3.73883 0.356838,5.00732 0.705345,2.37708 1.895227,6.94122 2.334099,8.95305 0.568687,2.60696 1.983692,7.24244 2.6239,8.59573 0.627356,1.32613 1.008642,1.61008 2.921648,2.17587 1.173753,0.34715 2.132599,0.43358 5.29322,0.47716 l 3.859805,0.0533 0.05352,0.61064 c 0.04725,0.53905 -0.08228,0.69235 -1.104824,1.3074 -0.637096,0.38322 -1.29193,0.64551 -1.45515,0.58287 -0.163236,-0.0626 -0.353116,-0.0228 -0.421945,0.0887 -0.245881,0.39782 -1.692183,0.97875 -3.586683,1.44062 -1.187824,0.28959 -2.780963,0.9003 -4.16002,1.59469 -2.630263,1.3244 -3.597908,1.45767 -4.176148,0.57516 -0.198272,-0.30261 -0.624938,-1.59356 -0.948135,-2.86878 -0.450913,-1.77917 -1.02882,-3.21653 -2.48403,-6.17838 -1.043026,-2.1229 -2.444197,-4.79869 -3.113739,-5.9462 -1.651979,-2.83135 -3.026199,-5.81176 -3.318872,-7.19802 -0.133258,-0.63114 -0.321471,-2.79055 -0.418262,-4.79869 -0.227228,-4.71502 -0.626706,-6.3043 -2.169775,-8.63224 -1.406701,-2.12223 -3.004103,-4.68473 -3.117974,-5.00175 -0.129651,-0.36099 -0.201922,-0.21595 -1.07594,2.15888 -1.686836,4.5834 -3.498338,7.50005 -6.673561,10.74488 -2.150714,2.19787 -2.829766,3.29752 -6.312981,10.22328 -3.500053,6.95924 -4.005199,8.15204 -4.166396,9.83816 -0.158351,1.65638 0.23177,2.48883 2.282701,4.87085 l 1.526935,1.77342 1.243843,0.13474 c 2.075792,0.22483 3.225913,0.58041 3.225913,0.99734 0,0.67902 -0.800961,1.15849 -2.056105,1.23081 -0.647783,0.0373 -1.788057,0.10999 -2.533939,0.16146 -1.206862,0.0832 -1.470988,0.0274 -2.399344,-0.50662 z m 58.363086,0.29066 c -0.486357,-0.22059 -0.717902,-0.49084 -0.808472,-0.94364 -0.126604,-0.63308 -0.130106,-0.63451 -1.561285,-0.63451 -1.142479,0 -1.516946,-0.0825 -1.840019,-0.40564 -0.847724,-0.84772 -0.772111,-2.70872 0.322594,-7.9399 0.276156,-1.31963 0.659151,-3.82597 0.851101,-5.56963 0.329774,-2.99589 0.328939,-3.25333 -0.01526,-4.67948 -1.007223,-4.1731 -0.890448,-7.37603 0.40059,-10.98786 0.90188,-2.52313 0.910349,-3.18026 0.109932,-8.54689 -0.337976,-2.26593 -0.670506,-4.96487 -0.738956,-5.99762 -0.243982,-3.68005 -0.187964,-3.52189 -1.872364,-5.28671 -1.665812,-1.74533 -2.737233,-3.50755 -3.584448,-5.89555 -0.484085,-1.36447 -0.559089,-1.94634 -0.642816,-4.98723 -0.07959,-2.89038 -0.02217,-3.86082 0.357836,-6.05052 0.39687,-2.2868 0.434721,-3.03199 0.307282,-6.05054 -0.154932,-3.66966 -0.20069,-3.87984 -1.657987,-7.6153 -2.221725,-5.6949 -2.936208,-8.9356 -2.759972,-12.5183 0.134091,-2.72552 0.460736,-3.88889 1.640818,-5.84363 1.10163,-1.82483 1.562551,-3.02603 1.848867,-4.81834 0.223224,-1.39733 0.220509,-1.41193 -0.429959,-2.31771 -0.640604,-0.89202 -0.654166,-0.95934 -0.63349,-3.14602 0.01857,-1.95824 0.08832,-2.37208 0.564554,-3.34748 0.617047,-1.26379 1.482585,-1.90686 2.581855,-1.91829 0.401631,-0.004 1.246617,-0.18923 1.877747,-0.41125 1.401927,-0.49315 2.449314,-0.51728 4.074772,-0.0939 1.76381,0.45942 2.924151,1.09192 3.854282,2.101 1.133449,1.22964 1.744885,3.79885 1.256375,5.27907 -0.237614,0.71999 -0.207676,0.87514 0.402092,2.08306 0.697249,1.38123 0.656897,1.72999 -0.232717,2.01234 -0.242274,0.0769 -0.367393,0.25147 -0.30213,0.42155 0.06126,0.15966 -0.109282,0.73797 -0.379033,1.28514 -0.269727,0.54716 -0.605947,1.29957 -0.747153,1.67201 -0.20207,0.53295 -0.440292,0.72982 -1.11851,0.92434 -0.473985,0.13594 -0.889282,0.26556 -0.922893,0.28803 -0.03359,0.0225 0.09215,0.36224 0.279474,0.75503 0.222781,0.46717 0.67655,0.89101 1.312062,1.2255 0.534344,0.28124 1.597231,1.04834 2.361974,1.70467 0.764741,0.65633 1.985672,1.52027 2.713156,1.91987 1.183979,0.65033 1.410332,0.70679 2.158277,0.53837 1.701948,-0.38325 3.416161,0.49277 3.13742,1.60336 -0.06661,0.26544 -0.0372,0.48262 0.06539,0.48262 0.102611,0 0.242877,-0.28166 0.31173,-0.62591 0.06885,-0.34426 0.249595,-0.62592 0.401629,-0.62592 0.367743,0 0.773691,0.4226 0.791617,0.82413 0.0079,0.17786 0.562259,0.76491 1.231795,1.30455 1.360098,1.09623 1.899469,2.24067 1.956611,4.15156 0.02892,0.96787 -0.02543,1.08681 -0.803504,1.75843 -0.459003,0.39619 -1.215004,0.82156 -1.680023,0.94526 l -0.845441,0.22493 0.484541,1.48628 c 0.266492,0.81745 0.914377,2.57137 1.439749,3.89759 1.289718,3.25571 1.749434,5.15018 1.745055,7.1912 -0.0068,3.03536 -0.732219,5.2732 -2.643907,8.15293 -0.379872,0.57223 -0.690678,1.11588 -0.690678,1.20812 0,0.0922 -0.193743,0.42976 -0.430528,0.75003 -0.420218,0.56837 -0.431923,0.84432 -0.488794,11.51883 -0.05435,10.20089 -0.08947,11.1181 -0.52216,13.6364 -0.557776,3.24634 -0.6879,3.57635 -2.51528,6.37885 -1.058594,1.62348 -1.714947,2.95539 -2.519415,5.11251 l -1.087862,2.91709 -0.373231,5.11164 c -0.205262,2.8114 -0.441149,6.01641 -0.524184,7.12222 l -0.150994,2.01058 0.917487,0.91036 c 1.223793,1.21428 2.810734,2.03594 4.29142,2.22195 1.173801,0.14746 1.212835,0.17246 1.212835,0.77654 0,0.55743 0.103693,0.6586 0.96994,0.94623 0.533445,0.17712 1.099862,0.42988 1.258657,0.56168 0.158813,0.1318 0.543854,0.33663 0.855666,0.45517 0.633277,0.24078 0.710368,0.57587 0.270751,1.17703 -0.275487,0.37672 -0.526733,0.40023 -3.599015,0.33665 -6.623852,-0.13707 -7.71269,-0.13444 -9.249042,0.0224 -1.206434,0.12316 -1.720872,0.0889 -2.246369,-0.14936 z m 47.833861,-0.058 c -0.56104,-0.22064 -1.8833,-0.36967 -4.03448,-0.45474 -3.1246,-0.12357 -3.21102,-0.13946 -3.6711,-0.67448 -0.38868,-0.45198 -0.54077,-0.508 -0.86852,-0.31995 -0.21855,0.12537 -0.91373,0.29615 -1.54486,0.37951 -0.63113,0.0833 -1.63707,0.21549 -2.2354,0.29363 -0.883,0.11531 -1.54939,0.0142 -3.53821,-0.5366 -2.11827,-0.58671 -2.65515,-0.66137 -3.9616,-0.55093 -1.91018,0.16147 -3.601737,-0.13778 -4.087091,-0.72304 -0.44978,-0.54236 -0.468205,-1.5568 -0.04659,-2.56582 0.175169,-0.41926 0.680659,-2.19111 1.123334,-3.93745 0.763097,-3.01052 1.067827,-4.83331 1.792537,-10.72173 0.39691,-3.22509 1.17517,-5.47343 3.02091,-8.72724 1.75638,-3.09627 2.09024,-3.89022 2.09024,-4.9708 0,-1.0811 -1.29773,-7.40496 -1.9984,-9.73821 -0.2929,-0.97539 -0.61068,-2.05508 -0.70618,-2.39934 -0.0955,-0.34425 -0.18324,-0.46716 -0.19498,-0.27312 -0.0117,0.19405 -0.10678,0.4056 -0.21119,0.47012 -0.26128,0.16147 -0.85337,-0.0879 -0.85337,-0.35937 0,-0.12212 -0.15901,-0.39775 -0.35335,-0.61249 -0.87643,-0.96845 -1.31298,-3.12486 -0.82403,-4.07039 0.31409,-0.60739 0.30508,-0.63839 -0.378,-1.30046 -1.839168,-1.78259 -1.799834,-7.81034 0.0824,-12.6244 0.76979,-1.96889 0.92474,-2.67612 1.3865,-6.32798 0.89152,-7.0504 2.21574,-12.65295 3.68408,-15.58644 0.8425,-1.6832 3.62455,-4.43721 5.37501,-5.32084 0.71612,-0.36151 2.25285,-0.98635 3.41492,-1.38854 1.16208,-0.40219 2.54606,-1.00686 3.0755,-1.34372 1.30887,-0.83272 3.26401,-2.92109 3.42292,-3.65613 0.37369,-1.72867 0.84438,-2.68771 1.45812,-2.97102 0.34326,-0.15846 0.99967,-0.64243 1.45867,-1.07548 1.3994,-1.3203 2.4628,-1.74648 4.38906,-1.759 1.55546,-0.0101 1.76458,0.0419 2.89043,0.71935 1.44341,0.86844 3.23743,2.73556 3.85573,4.01279 0.85908,1.77464 0.42027,4.39671 -1.04551,6.24743 -0.34793,0.43927 -0.84743,0.85259 -1.11005,0.91851 -0.58624,0.14714 -0.94709,0.88998 -0.94709,1.94975 0,0.9094 -0.40467,1.3659 -1.03382,1.16622 -0.26515,-0.0842 -0.55239,-0.0114 -0.75515,0.1914 -0.17996,0.17997 -0.50045,0.32722 -0.7122,0.32722 -0.21175,0 -0.42397,0.11696 -0.47163,0.25991 -0.0477,0.14296 -0.26223,0.26031 -0.47686,0.2608 -0.21957,4.2e-4 -0.44019,0.19129 -0.50449,0.43628 -0.15187,0.57858 -1.16357,1.75531 -1.50912,1.7553 -0.2859,0 -1.42179,-1.29873 -1.42179,-1.62561 0,-0.1031 -0.17884,-0.3493 -0.39742,-0.54712 -0.37706,-0.34123 -0.43855,-0.33778 -1.19967,0.0673 -1.35326,0.72019 -1.53248,0.93601 -1.53248,1.84537 0,1.29147 -0.59323,6.63131 -0.94443,8.5013 -0.17788,0.94714 -0.50522,1.93062 -0.75677,2.27371 -0.40136,0.5474 -0.43088,0.77949 -0.31208,2.45302 0.0721,1.01662 0.27267,2.18701 0.44558,2.60087 0.17293,0.41385 0.69298,2.44306 1.15567,4.50933 1.05543,4.71313 1.98702,7.29027 3.75218,10.37983 0.22843,0.39985 0.41534,1.01654 0.41534,1.37045 0,0.3539 0.15184,1.15341 0.33743,1.77668 0.23665,0.79479 0.3005,1.53123 0.21379,2.46595 -0.13109,1.41325 -0.48137,2.15472 -1.19955,2.53907 -0.64394,0.34463 -0.95456,-0.0511 -0.52332,-0.66674 0.35637,-0.5088 0.47224,-1.74843 0.14449,-1.54588 -0.10589,0.0654 -0.25436,0.4004 -0.32989,0.74429 -0.14065,0.64032 -0.62923,1.03906 -1.27318,1.03906 -0.67584,0 -1.91075,-0.72705 -2.37276,-1.39693 -0.45022,-0.65279 -0.45545,-0.7353 -0.2504,-3.95072 0.24494,-3.84091 0.32621,-3.52484 -2.16006,-8.40122 -1.0863,-2.13063 -1.55397,-2.8765 -1.55565,-2.48099 -0.002,0.31104 -0.11972,0.67485 -0.26316,0.80845 -0.16762,0.15614 -0.2345,0.65656 -0.18722,1.40068 0.0404,0.63676 -0.0375,1.49456 -0.17342,1.9062 -0.21589,0.65408 -0.18273,0.91913 0.26299,2.10224 0.28048,0.74459 0.97946,2.29267 1.55324,3.44018 1.91981,3.83935 3.24713,7.59183 4.8375,13.67613 0.4664,1.78431 1.0838,3.8245 1.372,4.53375 0.39489,0.97183 0.52397,1.66694 0.52397,2.82145 0,1.38981 -0.0867,1.71013 -0.93509,3.45316 -0.8215,1.68787 -0.98611,2.27042 -1.35502,4.7957 -0.23099,1.58095 -0.64535,4.13646 -0.92083,5.67891 -1.12277,6.28639 -1.42277,8.55353 -1.34843,10.19036 0.067,1.4756 0.14354,1.73749 0.71354,2.44174 1.1694,1.44485 5.68368,4.25545 6.83494,4.25545 0.29595,0 0.75378,0.0879 1.01735,0.19535 0.2636,0.10746 0.83135,0.25253 1.26166,0.32241 0.88019,0.14295 0.94179,0.28235 0.41326,0.93507 -0.75256,0.92937 -6.47245,1.40774 -8.28936,0.69325 z m -7.72976,-4.17152 c 0.5062,-2.14715 0.52854,-7.96786 0.047,-12.2411 -0.58734,-5.2121 -0.46902,-6.4076 1.10002,-11.11499 1.17637,-3.52926 1.15552,-4.32842 -0.18419,-7.06174 l -1.02262,-2.08638 -0.0171,2.10067 c -0.026,3.17457 -0.44462,4.20291 -2.82124,6.93035 -0.44461,0.51024 -1.71328,3.59632 -4.43551,10.78963 -1.86932,4.93951 -2.35782,6.65062 -2.35782,8.25896 v 1.19348 l 1.9299,1.71143 c 2.13347,1.89197 3.20051,2.5398 3.88739,2.36018 0.24989,-0.0653 0.85054,0.0272 1.33481,0.20554 0.85395,0.31458 1.47878,0.48805 1.93769,0.53793 0.12245,0.0133 0.39324,-0.69947 0.60175,-1.58396 z m -11.57249,-44.14808 c 0.002,-0.0928 -0.0907,-0.11077 -0.20544,-0.0398 -0.11476,0.071 -0.2072,0.28772 -0.20545,0.48175 0.003,0.30406 0.0311,0.30956 0.20545,0.0398 0.11124,-0.17214 0.20369,-0.38892 0.20544,-0.48175 z"
       id="path1757" />
  </g>
</svg>
